<svg xmlns="http://www.w3.org/2000/svg" 
     width="800px" height="800px" 
     viewBox="0 0 24 24" fill="none">

  <!-- 노란 렌치 + 검정 테두리 -->
  <path d="M7.52696,2.65749 
           C9.84214,2.0633 12.4068,2.67174 14.2226,4.4875 
           C16.2557,6.52063 16.7757,9.49139 15.7866,12.0047 
           L20.386,15.8965 
           C21.8599,17.1437 21.9531,19.3844 20.5878,20.7497 
           C19.2225,22.115 16.9819,22.0218 15.7347,20.5478 
           L11.8439,15.9496 
           C9.32978,16.9407 6.35717,16.4211 4.32307,14.387 
           C2.50712,12.571 1.89874,10.006 2.49325,7.69065 
           C2.69252,6.91455 3.67235,6.66881 4.21455,7.25777 
           L7.25889,10.5647 
           L9.55638,9.72045 
           L10.4026,7.42077 
           L7.09446,4.37926 
           C6.50489,3.83721 6.7505,2.85676 7.52696,2.65749 Z"
        fill="#FEBE69"
        stroke="black"
        stroke-width="2"
        stroke-linejoin="round"
        stroke-linecap="round"/>
</svg>
