<svg xmlns="http://www.w3.org/2000/svg" width="800px" height="800px" viewBox="0 0 24 24">
  <defs>
    <!-- 마스크 정의: 흰색 = 보임, 검정 = 구멍 -->
    <mask id="cutout">
      <!-- 전체 영역을 보이도록 흰색 -->
      <rect width="24" height="24" fill="white"/>
      <!-- 스패너 부분은 검정 → 구멍 처리 -->
      <path d="M8.8,4.4 L11.6,7.0 C11.9,7.3 12.0,7.7 11.9,8.1 
               L11.5,10.5 C11.4,11.0 11.0,11.4 10.5,11.5 
               L8.1,11.9 C7.7,12.0 7.3,11.9 7.0,11.5 
               L4.4,8.8 C4.3,10.3 4.7,11.8 5.9,12.9 
               C7.3,14.4 9.4,14.7 11.2,14.0 
               C11.7,13.8 12.3,13.9 12.7,14.4 
               L16.7,19.2 C17.4,20.0 18.6,20.0 19.3,19.3 
               C20.0,18.6 20.0,17.4 19.2,16.7 
               L14.4,12.6 C14.0,12.3 13.9,11.7 14.1,11.2 
               C14.8,9.4 14.4,7.3 12.9,5.8 
               C11.8,4.7 10.3,4.2 8.8,4.4 Z" 
            fill="#323232"/>
    </mask>
  </defs>

  <!-- 배경 주황색 (스패너 부분 구멍 처리됨) -->
  <path d="M6.8,2.9 C9.3,1.9 12.3,2.4 14.4,4.4 
           C16.3,6.3 16.8,9.1 16.1,11.4 
           L20.5,15.2 C22.2,16.6 22.3,19.1 20.7,20.7 
           C19.2,22.3 16.6,22.1 15.2,20.5 
           L11.5,16.1 C9.1,16.8 6.4,16.2 4.5,14.3 
           C2.4,12.3 1.9,9.3 2.9,6.8 
           C3.3,5.9 4.4,5.8 5.0,6.4 
           L8.2,9.9 L9.6,9.6 L9.9,8.1 L6.4,4.9 
           C5.8,4.4 5.9,3.2 6.8,2.9 Z" 
        fill="#FEBE69" mask="url(#cutout)" />

  <!-- 검정 외곽선 -->
  <path d="M6.8,2.9 C9.3,1.9 12.3,2.4 14.4,4.4 
           C16.3,6.3 16.8,9.1 16.1,11.4 
           L20.5,15.2 C22.2,16.6 22.3,19.1 20.7,20.7 
           C19.2,22.3 16.6,22.1 15.2,20.5 
           L11.5,16.1 C9.1,16.8 6.4,16.2 4.5,14.3 
           C2.4,12.3 1.9,9.3 2.9,6.8 
           C3.3,5.9 4.4,5.8 5.0,6.4 
           L8.2,9.9 L9.6,9.6 L9.9,8.1 L6.4,4.9 
           C5.8,4.4 5.9,3.2 6.8,2.9 Z" 
        fill="none" stroke="#323232" stroke-width="1.5"/>
</svg>
