<!DOCTYPE svg PUBLIC "-//W3C//DTD SVG 1.1//EN" "http://www.w3.org/Graphics/SVG/1.1/DTD/svg11.dtd">
<!-- Uploaded to: SVG Repo, www.svgrepo.com, Transformed by: SVG Repo Mixer Tools -->
<svg width="800px" height="800px" viewBox="-1.6 -1.6 19.20 19.20" fill="none" xmlns="http://www.w3.org/2000/svg" stroke="#000000" stroke-width="0.00016">
<g id="SVGRepo_bgCarrier" stroke-width="0" transform="translate(0.7999999999999998,0.7999999999999998), scale(0.9)"/>
<g id="SVGRepo_tracerCarrier" stroke-linecap="round" stroke-linejoin="round" stroke="#0000000" stroke-width="3.2"> <path fill-rule="evenodd" clip-rule="evenodd" d="M15 2V15H13V10H11V15H1V5L7 2H8V5L14 2H15ZM9 8H7V12H9V8ZM5 8H3V12H5V8Z" fill="#ffffff"/> </g>
<g id="SVGRepo_iconCarrier"> <path fill-rule="evenodd" clip-rule="evenodd" d="M15 2V15H13V10H11V15H1V5L7 2H8V5L14 2H15ZM9 8H7V12H9V8ZM5 8H3V12H5V8Z" fill="#ffffff"/> </g>
</svg>